<?xml version="1.0" standalone="no"?>
<!DOCTYPE svg PUBLIC "-//W3C//DTD SVG 20010904//EN"
 "http://www.w3.org/TR/2001/REC-SVG-20010904/DTD/svg10.dtd">
<svg version="1.0" xmlns="http://www.w3.org/2000/svg"
 width="512.000000pt" height="512.000000pt" viewBox="0 0 512.000000 512.000000"
 preserveAspectRatio="xMidYMid meet">
<metadata>
Created by potrace 1.14, written by Peter Selinger 2001-2017
</metadata>
<g transform="translate(0.000000,512.000000) scale(0.100000,-0.100000)"
fill="#000000" stroke="none">
<path d="M2276 5024 c-2 -6 -24 -10 -48 -9 -23 1 -53 -4 -65 -12 -13 -7 -23
-10 -23 -6 0 5 -4 1 -10 -7 -5 -8 -24 -14 -49 -14 -22 0 -39 -4 -38 -10 3 -13
-56 -14 -65 -1 -5 6 -8 6 -8 -2 0 -6 -9 -10 -20 -8 -11 2 -22 0 -25 -6 -4 -5
-19 -9 -35 -9 -36 0 -61 -10 -54 -21 3 -5 -6 -5 -20 1 -17 6 -26 6 -26 -1 0
-15 -43 -28 -57 -17 -9 7 -13 7 -13 0 0 -6 -6 -9 -13 -6 -13 5 -57 -30 -57
-46 0 -6 -3 -9 -7 -9 -23 4 -43 -2 -38 -11 3 -5 1 -10 -5 -10 -6 0 -9 -4 -6
-8 2 -4 -10 -7 -27 -7 -18 1 -41 -3 -52 -9 -11 -5 -25 -9 -31 -8 -5 1 -20 -7
-32 -18 -12 -11 -28 -20 -36 -20 -17 0 -80 -32 -85 -43 -2 -7 -32 -22 -61 -32
-26 -9 -39 -19 -34 -26 3 -5 0 -10 -5 -10 -6 -1 -15 -2 -19 -3 -5 0 -16 -9
-26 -18 -10 -10 -21 -18 -26 -18 -5 0 -21 -11 -36 -25 -21 -19 -29 -22 -36
-13 -5 9 -8 10 -8 1 0 -16 -89 -105 -99 -99 -10 7 -41 -30 -33 -39 4 -4 2 -5
-4 -3 -12 4 -379 -360 -371 -368 3 -3 -8 -19 -25 -36 -17 -16 -27 -35 -24 -44
3 -7 1 -14 -4 -14 -5 0 -12 -9 -15 -20 -4 -11 -11 -17 -17 -14 -7 5 -9 1 -5
-9 4 -10 -1 -22 -13 -30 -11 -8 -17 -17 -13 -20 3 -4 1 -7 -6 -7 -7 0 -10 -4
-7 -8 3 -5 -4 -16 -15 -25 -10 -9 -19 -24 -19 -32 0 -8 -4 -15 -9 -15 -5 0
-12 -10 -16 -22 -4 -13 -8 -26 -10 -30 -1 -5 -3 -15 -4 -23 0 -8 -10 -23 -22
-34 -11 -10 -19 -27 -17 -38 2 -10 -6 -25 -17 -35 -11 -9 -21 -26 -21 -37 -1
-12 -2 -27 -3 -35 0 -7 -12 -25 -26 -39 -18 -17 -22 -28 -14 -32 7 -5 3 -15
-13 -30 -18 -16 -24 -31 -22 -56 2 -36 -12 -73 -25 -65 -9 6 -11 -9 -12 -71 0
-24 -5 -43 -10 -43 -6 0 -9 -6 -8 -12 3 -25 -1 -39 -10 -34 -5 3 -11 -3 -14
-14 -3 -11 -2 -20 3 -20 4 0 5 -12 3 -27 -2 -16 -5 -34 -5 -40 -1 -7 -5 -13
-10 -13 -5 0 -8 -8 -6 -17 2 -11 -2 -17 -11 -15 -9 2 -12 -4 -8 -17 3 -11 0
-22 -7 -25 -6 -2 -6 -5 -1 -5 13 -1 11 -141 -2 -149 -5 -4 -9 -42 -8 -85 0
-43 -3 -81 -7 -83 -5 -3 -5 -11 -1 -17 10 -16 10 -237 0 -237 -5 0 -5 -6 0
-13 11 -17 11 -77 1 -84 -5 -3 -2 -13 8 -24 10 -11 15 -28 12 -44 -3 -14 -2
-25 1 -25 3 0 6 -18 7 -41 0 -22 4 -43 10 -47 5 -4 9 -14 9 -22 -1 -8 2 -19 6
-25 11 -17 16 -63 8 -77 -4 -7 -3 -18 3 -25 6 -8 7 -13 1 -13 -6 0 -8 -11 -5
-25 2 -14 9 -25 14 -25 5 0 7 -4 4 -9 -3 -5 1 -12 10 -15 10 -4 14 -14 11 -26
-3 -11 -2 -20 2 -20 3 0 12 -9 19 -21 11 -17 11 -20 0 -14 -7 3 -6 1 3 -7 8
-7 15 -26 15 -43 -1 -20 8 -38 29 -58 22 -21 29 -36 27 -57 -2 -20 3 -33 20
-44 13 -9 22 -19 21 -21 -2 -3 -3 -8 -2 -12 1 -5 0 -18 -1 -30 -1 -13 3 -23 9
-23 6 0 11 -13 11 -28 0 -16 8 -34 20 -42 11 -8 20 -26 20 -40 0 -14 9 -32 20
-40 11 -8 20 -21 20 -29 0 -7 7 -19 17 -26 9 -7 17 -21 18 -31 4 -32 16 -54
32 -54 8 0 11 -5 8 -10 -3 -6 0 -17 7 -25 29 -32 39 -45 33 -45 -3 0 6 -12 20
-27 14 -15 25 -33 25 -39 0 -6 7 -17 15 -24 8 -6 13 -15 12 -19 -1 -5 84 -94
189 -199 106 -105 189 -193 186 -196 -3 -4 2 -6 12 -6 9 0 14 -4 11 -10 -3 -5
3 -10 14 -10 20 0 101 -73 101 -91 0 -5 9 -9 20 -9 11 0 29 -9 40 -20 11 -11
26 -17 34 -14 7 3 23 -6 34 -20 11 -14 25 -26 32 -26 6 0 8 -4 5 -10 -3 -5 -1
-10 4 -10 6 0 11 5 11 10 0 7 6 7 20 0 11 -6 20 -8 20 -5 0 4 18 -11 41 -33
28 -28 48 -39 64 -37 15 1 33 -7 46 -21 12 -13 26 -21 32 -17 6 3 7 1 4 -4 -4
-6 1 -17 10 -24 13 -11 15 -11 9 -1 -10 17 23 13 42 -5 7 -6 22 -10 34 -8 15
3 30 -5 47 -24 27 -29 53 -37 161 -48 39 -4 59 -11 68 -25 8 -11 20 -17 27
-14 7 2 22 -2 33 -9 11 -8 29 -13 41 -10 11 2 27 -2 34 -9 9 -10 38 -13 95
-12 59 2 83 -2 86 -11 3 -7 16 -11 28 -9 13 2 32 -1 43 -8 24 -14 552 -15 575
-1 8 5 23 10 33 10 10 1 22 6 25 11 4 6 52 9 107 8 55 -1 109 3 120 9 11 6 36
11 55 12 48 3 48 3 46 23 -1 11 5 16 17 14 9 -2 17 2 17 8 0 5 20 10 44 10 25
0 48 5 51 11 4 5 23 9 43 7 29 -3 41 1 55 19 10 13 22 21 27 18 5 -3 15 1 23
10 8 8 24 13 35 10 12 -2 23 3 26 11 3 9 10 13 15 10 5 -3 14 1 21 9 7 8 16
13 20 10 4 -3 13 1 19 9 7 8 20 12 30 9 11 -3 25 4 37 19 11 14 24 23 31 21 6
-2 18 6 26 18 9 12 22 19 30 16 8 -3 27 6 43 19 16 14 36 23 46 21 19 -5 42
15 30 28 -4 5 -2 6 4 2 5 -3 18 5 28 19 11 13 24 24 31 24 7 0 26 14 43 30 18
17 38 30 45 30 7 0 23 14 36 31 13 18 28 28 37 25 8 -3 14 1 14 10 0 8 4 13 8
10 4 -2 16 8 27 24 11 16 28 31 39 34 11 3 17 8 14 11 -6 6 92 105 104 105 5
0 8 7 8 16 0 8 5 12 10 9 6 -3 10 -2 10 3 0 10 29 46 103 124 26 28 47 56 47
63 0 7 18 27 39 46 22 18 38 36 35 41 -3 4 6 19 18 33 13 15 23 30 22 33 -1 4
14 21 33 38 32 30 40 46 42 85 1 10 18 34 38 54 23 23 38 48 39 64 2 35 14 71
25 71 5 0 9 8 9 18 0 10 9 25 20 35 12 10 20 29 20 48 0 21 9 40 26 55 14 13
21 24 16 24 -15 0 -5 55 17 94 11 19 18 44 16 55 -2 11 6 30 19 44 18 19 23
35 21 73 0 31 4 54 15 64 8 9 17 16 20 14 3 -1 5 36 4 82 -1 57 3 84 10 84 7
0 12 9 12 20 0 11 -4 20 -9 20 -4 0 1 10 12 21 15 16 18 27 11 39 -5 10 -6 20
-3 24 9 9 10 118 1 137 -4 9 -5 19 -1 22 10 10 9 196 -1 190 -5 -4 -6 0 -1 7
10 16 9 125 -1 141 -4 7 -3 9 4 6 6 -5 8 0 5 13 -3 11 -10 20 -15 20 -5 0 -7
4 -3 9 3 5 1 12 -5 16 -6 4 -8 11 -5 16 4 5 2 9 -3 9 -5 0 -8 39 -8 87 1 59
-3 91 -12 100 -7 7 -10 17 -7 23 3 6 0 13 -8 16 -10 3 -13 20 -12 57 2 42 -2
54 -20 69 -16 13 -21 26 -20 53 3 36 -13 85 -27 85 -5 0 -8 13 -8 28 0 16 -8
34 -20 42 -13 9 -20 26 -20 48 0 23 -8 40 -27 57 -16 13 -22 25 -15 25 10 0 9
7 -3 30 -9 17 -12 30 -8 30 4 0 -1 6 -12 13 -10 8 -15 19 -11 25 3 6 0 17 -8
24 -7 8 -21 28 -30 46 -9 18 -21 32 -27 32 -6 0 -7 5 -4 10 3 6 2 10 -4 10 -5
0 -8 8 -7 18 2 9 -7 27 -20 38 -12 12 -20 24 -17 27 2 3 -11 21 -31 40 -19 19
-36 41 -38 48 -2 7 -11 20 -20 29 -10 8 -19 25 -21 38 -4 24 -210 242 -230
242 -6 0 -8 3 -5 6 7 7 -62 74 -76 74 -5 0 -7 2 -4 5 8 8 -156 171 -167 166
-14 -8 -38 -10 -32 -4 7 6 -86 101 -94 97 -4 -2 -9 3 -13 11 -3 8 -12 12 -20
9 -9 -3 -22 1 -31 10 -9 8 -22 13 -31 9 -9 -3 -32 13 -62 46 -26 28 -54 51
-62 51 -9 0 -21 9 -28 21 -7 11 -19 18 -27 15 -8 -3 -26 5 -41 17 -16 12 -36
20 -46 19 -9 -2 -28 2 -40 9 -27 15 -78 19 -78 7 0 -5 -13 5 -30 21 -16 17
-32 26 -35 21 -4 -6 -13 -7 -23 -1 -9 4 -22 6 -28 4 -6 -2 -23 10 -36 26 -19
21 -33 29 -52 27 -14 -2 -26 1 -26 6 0 5 -4 7 -9 3 -5 -3 -12 -1 -15 3 -3 5
-15 8 -28 7 -13 -1 -29 2 -35 8 -8 5 -13 6 -13 0 0 -13 -53 -10 -68 5 -8 6
-24 10 -38 8 -15 -3 -24 0 -24 8 0 8 -14 12 -39 12 -22 -1 -37 2 -35 6 5 8 2
9 -51 12 -16 1 -29 6 -28 11 2 15 -586 13 -591 -1z"/>
</g>
</svg>
